<svg width="45" height="14" viewBox="0 0 45 14" fill="none" xmlns="http://www.w3.org/2000/svg">
<path d="M38.6937 12.6482L44.3332 6.99086L38.6937 1.35132L38.0888 1.9384L41.3712 5.21183H31.3997V6.04797H42.2162L43.1591 6.99086L42.2162 7.93375H31.3997V8.78769H41.3623L38.0888 12.0611L38.6937 12.6482Z" fill="#BBBED8"/>
<path d="M17.5925 8.07229L18.4354 8.09062C18.4996 7.1286 19.1592 6.59719 20.048 6.60636C20.671 6.60636 21.0833 6.88122 21.6605 7.321C22.3568 7.87989 22.934 8.24637 23.7495 8.25553C24.9497 8.25553 26.0125 7.48592 26.1499 5.96501L25.2887 5.91004C25.1788 6.82625 24.5649 7.3943 23.7311 7.3943C23.1723 7.38513 22.7966 7.1286 22.2286 6.69798C21.5231 6.13909 20.9092 5.74512 20.0113 5.74512C18.747 5.74512 17.6567 6.5239 17.5925 8.07229Z" fill="#BBBED8"/>
<path d="M6.24973 13.276H6.93617C7.05058 12.5568 7.37746 11.7887 7.90046 10.9551C8.93012 9.3044 11.0385 7.70271 12.8853 7.3268V6.64035C11.9701 6.44423 11.0875 6.03563 10.2376 5.43091C8.52153 4.20512 7.21402 2.39095 6.93617 0.723877H6.24973C6.08629 1.60644 5.71038 2.45633 5.122 3.28986C3.94525 4.95694 2.14742 6.23176 0.333252 6.64035V7.3268C1.23216 7.50658 2.16376 7.96421 3.11171 8.68334C5.0076 10.1216 6.02092 11.8704 6.24973 13.276ZM6.47854 12.8837C6.34779 11.3147 5.84113 9.43516 5.23641 8.3728C4.12503 7.75174 2.2128 7.24508 0.725505 7.13067V6.90186C2.22914 6.78745 4.1904 6.23176 5.23641 5.62704C5.85748 4.532 6.34779 2.68514 6.47854 1.14882H6.70736C6.8708 2.84858 7.37746 4.6464 7.94949 5.62704C8.96281 6.23176 11.0221 6.78745 12.4604 6.90186V7.13067C11.0221 7.22873 9.04453 7.75174 7.94949 8.3728C7.37746 9.33709 6.8708 11.1839 6.70736 12.8837H6.47854Z" fill="#BBBED8"/>
</svg>
