<svg width="29" height="8" viewBox="0 0 29 8" fill="none" xmlns="http://www.w3.org/2000/svg">
<path d="M24.578 7.6998L28.2722 3.99398L24.578 0.299805L24.1818 0.684372L26.3319 2.82862H19.8V3.37634H26.8854L27.503 3.99398L26.8854 4.61162H19.8V5.17099H26.326L24.1818 7.31524L24.578 7.6998Z" fill="#58585E"/>
<path d="M11 4.68341L11.5372 4.69509C11.5781 4.08195 11.9985 3.74326 12.565 3.7491C12.962 3.7491 13.2248 3.92428 13.5927 4.20457C14.0365 4.56078 14.4044 4.79436 14.9241 4.8002C15.6891 4.8002 16.3664 4.30968 16.454 3.34034L15.9051 3.3053C15.835 3.88925 15.4438 4.25129 14.9124 4.25129C14.5562 4.24545 14.3168 4.08195 13.9547 3.80749C13.5051 3.45129 13.1139 3.2002 12.5416 3.2002C11.7358 3.2002 11.0409 3.69655 11 4.68341Z" fill="#58585E"/>
<path d="M3.77083 8H4.20833C4.28125 7.54167 4.48958 7.05208 4.82292 6.52083C5.47917 5.46875 6.82292 4.44792 8 4.20833V3.77083C7.41667 3.64583 6.85417 3.38542 6.3125 3C5.21875 2.21875 4.38542 1.0625 4.20833 0H3.77083C3.66667 0.5625 3.42708 1.10417 3.05208 1.63542C2.30208 2.69792 1.15625 3.51042 0 3.77083V4.20833C0.572917 4.32292 1.16667 4.61458 1.77083 5.07292C2.97917 5.98958 3.625 7.10417 3.77083 8ZM3.91667 7.75C3.83333 6.75 3.51042 5.55208 3.125 4.875C2.41667 4.47917 1.19792 4.15625 0.25 4.08333V3.9375C1.20833 3.86458 2.45833 3.51042 3.125 3.125C3.52083 2.42708 3.83333 1.25 3.91667 0.270833H4.0625C4.16667 1.35417 4.48958 2.5 4.85417 3.125C5.5 3.51042 6.8125 3.86458 7.72917 3.9375V4.08333C6.8125 4.14583 5.55208 4.47917 4.85417 4.875C4.48958 5.48958 4.16667 6.66667 4.0625 7.75H3.91667Z" fill="#58585E"/>
</svg>
